<?xml version="1.0" encoding="UTF-8" standalone="no"?>
<!-- Created with Inkscape (http://www.inkscape.org/) -->

<svg
   width="53.18124mm"
   height="9.8514271mm"
   viewBox="0 0 53.18124 9.8514271"
   version="1.1"
   id="svg5"
   sodipodi:docname="logo.svg"
   inkscape:version="1.1.1 (3bf5ae0d25, 2021-09-20)"
   xmlns:inkscape="http://www.inkscape.org/namespaces/inkscape"
   xmlns:sodipodi="http://sodipodi.sourceforge.net/DTD/sodipodi-0.dtd"
   xmlns="http://www.w3.org/2000/svg"
   xmlns:svg="http://www.w3.org/2000/svg">
  <sodipodi:namedview
     id="namedview7"
     pagecolor="#505050"
     bordercolor="#eeeeee"
     borderopacity="1"
     inkscape:pageshadow="0"
     inkscape:pageopacity="0"
     inkscape:pagecheckerboard="0"
     inkscape:document-units="mm"
     showgrid="false"
     inkscape:zoom="2"
     inkscape:cx="126"
     inkscape:cy="50.75"
     inkscape:window-width="1366"
     inkscape:window-height="697"
     inkscape:window-x="-8"
     inkscape:window-y="-8"
     inkscape:window-maximized="1"
     inkscape:current-layer="layer1"
     fit-margin-top="0"
     fit-margin-left="0"
     fit-margin-right="0"
     fit-margin-bottom="0" />
  <defs
     id="defs2" />
  <g
     inkscape:label="Layer 1"
     inkscape:groupmode="layer"
     id="layer1"
     transform="translate(-59.740659,-25.449681)">
    <path
       style="fill:#ff7e00;stroke-width:0.0274413;fill-opacity:1"
       d="m 59.740659,34.230897 v -1.07021 h 1.070211 1.07021 v 0.42534 0.42534 h -0.21953 -0.21953 v 0.21953 0.219531 h 0.21953 0.21953 v 0.42534 0.42534 h -1.07021 -1.070211 z m 1.701361,0.425341 v -0.20581 h -0.63115 -0.63115 v 0.20581 0.205809 h 0.63115 0.63115 z m 0,-0.850681 v -0.20581 h -0.63115 -0.63115 v 0.20581 0.20581 h 0.63115 0.63115 z m 1.728802,0.850681 v -0.644871 h -0.20581 -0.20581 v -0.20581 -0.20581 H 62.525951 62.2927 v -0.21953 -0.21953 h 0.233251 0.233251 v 0.21953 0.21953 h 0.20581 0.20581 v 0.20581 0.20581 h 0.233251 0.233251 v -0.20581 -0.20581 h 0.192089 0.192089 v -0.21953 -0.21953 h 0.233251 0.233251 v 0.21953 0.21953 h -0.233251 -0.233251 v 0.20581 0.20581 h -0.192089 -0.192089 v 0.644871 0.64487 h -0.233251 -0.233251 z m 3.430162,0.42534 v -0.219531 h 0.864401 0.864401 v -0.205809 -0.20581 h -0.864401 -0.864401 v -0.644871 -0.64487 h 1.070211 1.070211 v 0.21953 0.21953 h -0.850681 -0.85068 v 0.20581 0.20581 h 0.85068 0.850681 v 0.644871 0.64487 h -1.070211 -1.070211 z m 2.579482,-0.850681 v -1.07021 h 1.070211 1.070211 v 1.07021 1.070211 h -1.070211 -1.070211 z m 1.701361,0 v -0.63115 h -0.644871 -0.64487 v 0.63115 0.63115 h 0.64487 0.644871 z m 0.905563,0 v -1.07021 h 1.05649 1.05649 v 0.64487 0.644871 h -0.233251 -0.233251 v 0.20581 0.205809 h 0.233251 0.233251 v 0.219531 0.21953 h -0.233251 -0.233251 v -0.21953 -0.219531 H 73.241779 73.04969 v -0.205809 -0.20581 h -0.439061 -0.439061 v 0.42534 0.42534 H 71.979479 71.78739 Z m 1.646478,-0.42534 v -0.20581 h -0.63115 -0.63115 v 0.20581 0.20581 h 0.63115 0.63115 z m 0.878121,0.42534 v -1.07021 h 1.083932 1.083931 v 0.21953 0.21953 h -0.85068 -0.85068 v 0.20581 0.20581 h 0.42534 0.42534 v 0.21953 0.219531 h -0.42534 -0.42534 v 0.20581 0.205809 h 0.85068 0.85068 v 0.219531 0.21953 h -1.083931 -1.083932 z m 2.579483,0 v -1.07021 h 0.21953 0.21953 v 0.42534 0.42534 h 0.425341 0.42534 v -0.20581 -0.20581 h 0.21953 0.219531 v -0.21953 -0.21953 h 0.205809 0.20581 v 0.21953 0.21953 h -0.20581 -0.205809 v 0.20581 0.20581 h -0.219531 -0.21953 v 0.21953 0.219531 h 0.21953 0.219531 v 0.20581 0.205809 h 0.205809 0.20581 v 0.219531 0.21953 h -0.20581 -0.205809 v -0.21953 -0.219531 h -0.219531 -0.21953 v -0.205809 -0.20581 h -0.42534 -0.425341 v 0.42534 0.42534 h -0.21953 -0.21953 z m 2.579482,0.850681 v -0.219531 h 0.233251 0.233251 v 0.219531 0.21953 h -0.233251 -0.233251 z m 0.85068,-0.850681 v -1.07021 h 0.20581 0.20581 v 0.85068 0.85068 h 0.658591 0.658591 v -0.85068 -0.85068 h 0.20581 0.20581 v 1.07021 1.070211 h -1.070211 -1.070211 z m 2.606924,0 v -1.07021 h 0.20581 0.205809 v 0.42534 0.42534 h 0.42534 0.425341 v -0.20581 -0.20581 h 0.192089 0.192089 v -0.21953 -0.21953 h 0.233251 0.233251 v 0.21953 0.21953 h -0.233251 -0.233251 v 0.20581 0.20581 h -0.192089 -0.192089 v 0.21953 0.219531 h 0.192089 0.192089 v 0.20581 0.205809 h 0.233251 0.233251 v 0.219531 0.21953 h -0.233251 -0.233251 v -0.21953 -0.219531 h -0.192089 -0.192089 v -0.205809 -0.20581 h -0.425341 -0.42534 v 0.42534 0.42534 h -0.205809 -0.20581 z m 5.104082,0 v -1.07021 h 1.083931 1.083931 v 1.07021 1.070211 H 89.967251 89.734 v -0.42534 -0.42534 H 89.10285 88.4717 v 0.42534 0.42534 h -0.21953 -0.21953 z m 1.70136,-0.42534 v -0.20581 H 89.10285 88.4717 v 0.20581 0.20581 h 0.63115 0.63115 z m 0.878122,0.42534 v -1.07021 h 1.05649 1.05649 v 1.07021 1.070211 h -0.192089 -0.192089 v -0.85068 -0.850681 h -0.63115 -0.63115 v 0.850681 0.85068 h -0.233251 -0.233251 z m 2.579482,0 v -1.07021 h 0.864401 0.864401 v 0.21953 0.21953 h 0.20581 0.20581 v 0.63115 0.63115 h -0.20581 -0.20581 v 0.219531 0.21953 h -0.864401 -0.864401 z m 1.728802,0 v -0.63115 h -0.644871 -0.64487 v 0.63115 0.63115 h 0.64487 0.644871 z m 2.96366,0.850681 v -0.219531 h 0.219531 0.21953 v -0.205809 -0.20581 h 0.219531 0.21953 v -0.219531 -0.21953 h 0.233251 0.233251 v -0.20581 -0.20581 h -0.672312 -0.672312 v -0.21953 -0.21953 h 1.070211 1.070213 v 0.21953 0.21953 h -0.205812 -0.20581 v 0.20581 0.20581 H 99.420779 99.22869 v 0.21953 0.219531 h -0.233251 -0.233251 v 0.20581 0.205809 h 0.63115 0.631152 v 0.219531 0.21953 h -1.070213 -1.070211 z m 2.606924,-0.850681 v -1.07021 h 1.07022 1.07021 v 1.07021 1.070211 h -0.20581 -0.20581 v -0.42534 -0.42534 h -0.67231 -0.67232 v 0.42534 0.42534 h -0.19209 -0.19209 z m 1.72881,-0.42534 v -0.20581 h -0.67231 -0.67232 v 0.20581 0.20581 h 0.67232 0.67231 z m 0.85068,0.42534 v -1.07021 h 1.05649 1.05649 v 0.64487 0.644871 h -0.20581 -0.20581 v 0.20581 0.205809 h 0.20581 0.20581 v 0.219531 0.21953 h -0.20581 -0.20581 v -0.21953 -0.219531 h -0.21953 -0.21953 v -0.205809 -0.20581 h -0.42534 -0.42534 v 0.42534 0.42534 h -0.20581 -0.20581 z m 1.70136,-0.42534 v -0.20581 h -0.64487 -0.64487 v 0.20581 0.20581 h 0.64487 0.64487 z m 0.85068,0.42534 v -1.07021 h 1.07021 1.07021 v 0.42534 0.42534 h -0.19209 -0.19209 v 0.21953 0.219531 h 0.19209 0.19209 v 0.42534 0.42534 h -1.07021 -1.07021 z m 1.75624,0.425341 v -0.20581 h -0.65859 -0.65859 v 0.20581 0.205809 h 0.65859 0.65859 z m 0,-0.850681 v -0.20581 h -0.65859 -0.65859 v 0.20581 0.20581 h 0.65859 0.65859 z m 0.7958,0.42534 v -1.07021 h 1.09765 1.09765 v 1.07021 1.070211 h -1.09765 -1.09765 z m 1.7288,0 v -0.63115 h -0.64487 -0.64487 v 0.63115 0.63115 h 0.64487 0.64487 z m 0.87812,0.850681 v -0.219531 h 0.21953 0.21953 v -0.205809 -0.20581 h 0.20581 0.20581 v -0.219531 -0.21953 h 0.19209 0.19209 v -0.20581 -0.20581 h -0.61743 -0.61743 v -0.21953 -0.21953 h 1.07021 1.07021 v 0.21953 0.21953 h -0.21953 -0.21953 v 0.20581 0.20581 h -0.23325 -0.23325 v 0.21953 0.219531 h -0.19209 -0.19209 v 0.20581 0.205809 h 0.64487 0.64487 v 0.219531 0.21953 h -1.07021 -1.07021 z M 59.740659,29.099374 v -3.649693 h 3.649693 3.649693 v 0.63115 0.63115 H 64.035222 61.0304 v 2.373673 2.373672 h 2.359952 2.359952 v -0.85068 -0.850681 h -1.495551 -1.495551 v -0.658591 -0.658591 h 2.140421 2.140422 v 2.154142 2.154142 h -3.649693 -3.649693 z m 8.589127,0 v -3.649693 h 3.649693 3.649693 v 3.649693 3.649693 h -0.658591 -0.658592 v -1.495551 -1.495551 h -2.359951 -2.359952 v 1.495551 1.495551 h -0.63115 -0.63115 z m 5.982203,-1.522992 v -0.864401 h -2.359951 -2.359952 v 0.864401 0.864401 h 2.359952 2.359951 z m 2.579483,1.522992 v -3.649693 h 0.64487 0.644871 v 3.004823 3.004822 h 2.373672 2.373673 v -3.004822 -3.004823 h 0.63115 0.63115 v 3.649693 3.649693 h -3.649693 -3.649693 z m 8.589127,0 v -3.649693 h 3.622251 3.622252 v 0.63115 0.63115 H 89.747721 86.77034 v 2.373673 2.373672 h 2.346231 2.346231 v -0.85068 -0.850681 H 89.967251 88.4717 v -0.658591 -0.658591 h 2.126701 2.126701 v 2.154142 2.154142 H 89.10285 85.480599 Z m 8.561685,0 v -3.649693 h 3.416442 3.416444 v 0.63115 0.63115 h -2.771573 -2.771571 v 0.864401 0.864401 h 1.49555 1.495551 v 0.658591 0.658591 h -1.495551 -1.49555 v 0.850681 0.85068 h 2.771571 2.771573 v 0.644871 0.64487 h -3.416444 -3.416442 z m 8.589136,3.004823 v -0.644871 h 0.64487 0.64487 v 0.644871 0.64487 h -0.64487 -0.64487 z m 2.9911,0 v -0.644871 h 3.00482 3.00482 v -0.85068 -0.850681 h -3.00482 -3.00482 v -2.154142 -2.154142 h 3.64969 3.64969 v 0.63115 0.63115 h -3.00482 -3.00482 v 0.864401 0.864401 h 3.00482 3.00482 v 2.154142 2.154142 h -3.64969 -3.64969 z"
       id="path11026" />
  </g>
</svg>
